<svg xmlns="http://www.w3.org/2000/svg" xmlnsXlink="http://www.w3.org/1999/xlink" viewBox="0 0 94.207 20">
            <defs>
                <clipPath id="hyte-1">
                    <rect data-name="hyte-1" width="94.207" height="20" fill="none" />
                </clipPath>
            </defs>
            <g id="hyte-2" data-name="hyte-2" clipPath="url(#hyte-1)">
                <path
                    id="hyte-3"
                    data-name="hyte-3"
                    d="M5,17.5a2.449,2.449,0,0,1-.7,1.825A2.433,2.433,0,0,1,2.5,20a2.532,2.532,0,0,1-1.825-.675A2.453,2.453,0,0,1,0,17.5V2.5A2.433,2.433,0,0,1,.675.7,2.57,2.57,0,0,1,2.5,0,2.355,2.355,0,0,1,4.3.7,2.553,2.553,0,0,1,5,2.5Zm17.187,0a2.362,2.362,0,0,1-2.5,2.5,2.532,2.532,0,0,1-1.825-.675,2.453,2.453,0,0,1-.675-1.825V13.75c0-.825-.4-1.225-1.25-1.25H9.187a2.533,2.533,0,0,1-1.825-.675A2.453,2.453,0,0,1,6.687,10a2.432,2.432,0,0,1,.675-1.8,2.57,2.57,0,0,1,1.825-.7h6.75c.825,0,1.225-.4,1.25-1.25V2.5A2.433,2.433,0,0,1,17.862.7,2.57,2.57,0,0,1,19.687,0a2.355,2.355,0,0,1,1.8.7,2.552,2.552,0,0,1,.7,1.8Z"
                    fill="#082b48"
                />
                <path
                    id="hyte-4"
                    data-name="hyte-4"
                    d="M658.552,212.853a2.362,2.362,0,0,1-2.5,2.5,2.532,2.532,0,0,1-1.825-.675,2.453,2.453,0,0,1-.675-1.825v-4.729a2.433,2.433,0,0,1,.675-1.8,2.57,2.57,0,0,1,1.825-.7,2.355,2.355,0,0,1,1.8.7,2.553,2.553,0,0,1,.7,1.8Z"
                    transform="translate(-620.907 -195.353)"
                    fill="#082b48"
                />
                <path
                    id="hyte-5"
                    data-name="hyte-5"
                    d="M499.007,3.847a3.706,3.706,0,0,1,1.858,1.745,1.932,1.932,0,0,1-.218,1.976,2.676,2.676,0,0,1-1.911,1.153,4.573,4.573,0,0,1-2.666-.558l-6.554-3.3a3.7,3.7,0,0,1-1.842-1.708,2.042,2.042,0,0,1,.2-2.013A2.529,2.529,0,0,1,489.8.031a4.752,4.752,0,0,1,2.649.521Z"
                    transform="translate(-463.145 -0.001)"
                    fill="#082b48"
                />
                <path
                    id="hyte-6"
                    data-name="hyte-6"
                    d="M657.089.551A4.753,4.753,0,0,1,659.738.03a2.529,2.529,0,0,1,1.927,1.116,2.042,2.042,0,0,1,.2,2.013,3.7,3.7,0,0,1-1.842,1.708l-6.554,3.3a4.573,4.573,0,0,1-2.666.558,2.676,2.676,0,0,1-1.911-1.153,1.932,1.932,0,0,1-.218-1.976,3.707,3.707,0,0,1,1.858-1.745Z"
                    transform="translate(-616.106 0)"
                    fill="#082b48"
                />
                <path
                    id="hyte-7"
                    data-name="hyte-7"
                    d="M971.6,17.5a2.362,2.362,0,0,1-2.5,2.5,2.533,2.533,0,0,1-1.825-.675A2.452,2.452,0,0,1,966.6,17.5V6.25c0-.825-.4-1.225-1.25-1.25H960.1a2.532,2.532,0,0,1-1.825-.675A2.452,2.452,0,0,1,957.6,2.5a2.433,2.433,0,0,1,.675-1.8A2.57,2.57,0,0,1,960.1,0h9a2.355,2.355,0,0,1,1.8.7,2.552,2.552,0,0,1,.7,1.8Z"
                    transform="translate(-909.768)"
                    fill="#082b48"
                />
                <path
                    id="hyte-8"
                    data-name="hyte-8"
                    d="M1448.543,17.5a2.362,2.362,0,0,1-2.5,2.5h-18a2.533,2.533,0,0,1-1.825-.675,2.453,2.453,0,0,1-.675-1.825V2.5a2.433,2.433,0,0,1,.675-1.8,2.57,2.57,0,0,1,1.825-.7h18a2.355,2.355,0,0,1,1.8.7,2.552,2.552,0,0,1,.7,1.8a2.449,2.449,0,0,1-.7,1.825,2.433,2.433,0,0,1-1.8.675h-14.25c-.825,0-1.225.4-1.25,1.25v7.5c0,.825.4,1.225,1.25,1.25h14.25a2.355,2.355,0,0,1,1.8.7,2.552,2.552,0,0,1,.7,1.8M1442.79,10a2.362,2.362,0,0,1-2.5,2.5h-4.747a2.532,2.532,0,0,1-1.825-.675,2.453,2.453,0,0,1-.675-1.825,2.433,2.433,0,0,1,.675-1.8,2.57,2.57,0,0,1,1.825-.7h4.747a2.354,2.354,0,0,1,1.8.7,2.55,2.55,0,0,1,.7,1.8"
                    transform="translate(-1354.336 -0.001)"
                    fill="#082b48"
                />
                <path
                    id="hyte-9"
                    data-name="hyte-9"
                    d="M1268.228,2.949A2.949,2.949,0,1,1,1265.278,0a2.949,2.949,0,0,1,2.95,2.949"
                    transform="translate(-1199.275)"
                    fill="#fbb427"
                />
            </g>
        </svg>